<svg width="47" height="12" viewBox="0 0 47 12" fill="none" xmlns="http://www.w3.org/2000/svg">
<path d="M4.26646 3.28322C3.86683 3.36053 3.50912 3.59507 3.19204 3.98946C2.91033 4.33799 2.71379 4.72976 2.60111 5.16346C2.48842 5.60895 2.47532 6.05707 2.56311 6.50649C2.67055 7.02798 2.90116 7.42499 3.25362 7.69621C3.50388 7.89145 3.80918 8.01068 4.16688 8.05654C4.30053 8.0775 4.44597 8.08668 4.60451 8.08668C4.66085 8.08143 4.72506 8.07881 4.79581 8.07881L4.87967 8.07095L4.95697 8.06309C5.25441 8.04213 5.53743 7.98578 5.80865 7.89407C5.91609 7.85869 6.02616 7.81545 6.13884 7.76304C6.2109 7.72766 6.30262 7.6818 6.41531 7.62546C6.63543 7.51802 6.78873 7.45119 6.87652 7.4263C7.02458 7.38568 7.15823 7.39354 7.27616 7.44988C7.5631 7.58746 7.74654 7.898 7.82909 8.37887C7.91033 8.86498 7.85005 9.30523 7.64434 9.69962C7.44518 10.0888 7.10189 10.3783 6.61578 10.567C6.43103 10.6391 6.22139 10.7007 5.98685 10.7518C5.89513 10.7727 5.79555 10.7898 5.6868 10.8055L5.54136 10.8291L5.41033 10.8527H5.36447L5.31861 10.8605C5.27275 10.8658 5.22951 10.871 5.18758 10.8762C5.06442 10.892 4.94125 10.9024 4.8194 10.9064C4.46562 10.9221 4.12102 10.9064 3.78297 10.8605C2.76489 10.7229 1.92239 10.3233 1.25677 9.66293C0.601632 9.00911 0.202 8.17184 0.05918 7.15376C0.00807942 6.78427 -0.0102644 6.38856 0.00545888 5.96273C0.0107 5.80418 0.0211821 5.63516 0.0355951 5.45565C0.0408362 5.38883 0.0486978 5.31807 0.05918 5.24077L0.0670416 5.13332L0.0827649 5.0416L0.0906265 4.9643L0.0984882 4.87258C0.10897 4.80576 0.116832 4.74417 0.122073 4.68783C0.143037 4.53977 0.165312 4.39826 0.191517 4.26592C0.2531 3.90822 0.336958 3.57541 0.4444 3.2675C0.741831 2.40796 1.20174 1.71614 1.82674 1.19465C2.72034 0.453034 3.80001 0.0665045 5.06442 0.0363683C5.63701 0.0258861 6.14932 0.100572 6.60006 0.259114C7.0652 0.428139 7.41373 0.67185 7.64434 0.988936C7.85923 1.29161 7.98239 1.64669 8.01253 2.0555C8.04791 2.50099 7.95881 2.86655 7.74392 3.1535C7.60634 3.34349 7.40849 3.49155 7.15299 3.599C7.06651 3.63437 6.97086 3.66582 6.86866 3.69071C6.83328 3.7012 6.79398 3.70906 6.75336 3.7143L6.7075 3.72216L6.6695 3.73002C6.42317 3.77588 6.18339 3.77326 5.94754 3.72216C5.79948 3.68678 5.60949 3.61734 5.37888 3.51514C4.91243 3.3055 4.54162 3.22819 4.26515 3.28453L4.26646 3.28322Z" fill="white"/>
<path d="M15.6055 0.511913C16.5987 0.992782 17.305 1.85232 17.7243 3.09184C18.1186 4.24881 18.1645 5.40578 17.8618 6.56144L17.854 6.59943L17.8382 6.64529C17.8225 6.69639 17.8081 6.74749 17.7924 6.79859C17.7465 6.94141 17.6928 7.08817 17.6312 7.23623C17.4465 7.68696 17.2237 8.10625 16.963 8.4954C16.1545 9.67726 15.1076 10.3796 13.8236 10.5984C12.7688 10.7779 11.7429 10.6062 10.7444 10.0834C9.84297 9.61306 9.13673 8.95792 8.62573 8.11804C8.59035 8.0617 8.55366 8.00273 8.51828 7.94115C8.47242 7.85467 8.42918 7.76689 8.38726 7.68041C8.26933 7.43408 8.17237 7.18644 8.09507 6.93617C7.8697 6.20373 7.82908 5.49094 7.9719 4.79388C8.11996 4.06144 8.47111 3.34996 9.02405 2.65945C9.55078 1.99907 10.1941 1.44614 10.9515 1.00064C11.7245 0.54467 12.5041 0.266892 13.2929 0.163381C14.1472 0.0559383 14.9176 0.171242 15.6042 0.509292L15.6055 0.511913ZM14.7381 4.91049C14.7735 4.42438 14.6975 3.95793 14.5075 3.51374C14.3136 3.05777 14.0568 2.75379 13.7397 2.60049C13.4986 2.48256 13.2379 2.46553 12.9562 2.54676C12.6954 2.62931 12.4465 2.7931 12.2119 3.03812C11.6944 3.57009 11.4389 4.21474 11.4441 4.97339C11.4441 5.42412 11.5489 5.84865 11.7586 6.24828C11.9735 6.65315 12.2447 6.91914 12.5723 7.04624C13.0479 7.23623 13.517 7.10258 13.9769 6.6466C14.4381 6.19063 14.691 5.6128 14.7368 4.9118L14.7381 4.91049Z" fill="white"/>
<path d="M25.1797 0.772733C25.3382 1.0492 25.3867 1.38987 25.3251 1.79343C25.2636 2.19831 25.1181 2.48395 24.8875 2.65297C24.7499 2.74993 24.5783 2.78662 24.3726 2.76041C24.2953 2.74993 24.2009 2.73028 24.0882 2.69883L23.9428 2.65297L23.7895 2.59925C23.513 2.51277 23.2877 2.46167 23.1134 2.44595C22.8422 2.43023 22.5867 2.47871 22.3456 2.59139C22.1766 2.6687 22.0337 2.76566 21.9158 2.88358C21.8752 2.92944 21.8359 2.9753 21.8005 3.02116C21.7848 3.04212 21.7717 3.06178 21.7625 3.08274C21.752 3.09846 21.7415 3.11288 21.7324 3.1286C21.5843 3.38934 21.5175 3.69202 21.5332 4.034C21.5489 4.37729 21.6433 4.61969 21.8175 4.76382C21.904 4.83589 22.0377 4.85554 22.2172 4.8254C22.2473 4.82016 22.301 4.8123 22.3783 4.80182L22.4701 4.78609L22.5696 4.77037C22.7491 4.74024 22.93 4.71665 23.1147 4.70093C23.5235 4.66555 23.8 4.65245 23.9441 4.66293C24.1538 4.67341 24.3097 4.72451 24.4119 4.81623C24.6268 5.02063 24.729 5.34296 24.7185 5.78321C24.7132 6.21822 24.6006 6.53007 24.3804 6.72006C24.2835 6.80653 24.1197 6.84322 23.8891 6.8275L23.8052 6.81964L23.7056 6.81178C23.6192 6.80653 23.5392 6.80391 23.4672 6.80391C23.2628 6.79343 23.0479 6.79605 22.8225 6.81178C22.4438 6.83798 22.1543 6.88646 21.9551 6.95721C21.8831 6.98342 21.8241 7.01094 21.7782 7.04107C21.7625 7.0568 21.7481 7.0699 21.7324 7.07907L21.7167 7.09479L21.7088 7.11052C21.6013 7.22844 21.5581 7.68573 21.5778 8.48499C21.583 8.78766 21.5987 9.10475 21.6236 9.43756C21.6446 9.72975 21.6669 9.96429 21.6931 10.1438C21.7337 10.4465 21.6367 10.702 21.4009 10.9116C21.2528 11.0453 21.0733 11.116 20.8637 11.1265C20.7811 11.1317 20.6868 11.137 20.5793 11.1422L20.4418 11.1501L20.3186 11.1579C20.1247 11.1737 19.9727 11.1789 19.8652 11.1737C19.5678 11.1579 19.3359 11.0636 19.1669 10.8893C18.9166 10.6338 18.783 10.1857 18.7672 9.54631V9.38515L18.7594 9.20826C18.7541 9.07068 18.7515 8.94228 18.7515 8.82435C18.7463 8.50202 18.741 8.20066 18.7358 7.91895C18.7305 7.14589 18.741 6.43966 18.7659 5.80025C18.8275 4.00386 19.0044 2.69621 19.2953 1.87729C19.3306 1.78033 19.3621 1.70041 19.387 1.63882C19.4224 1.55234 19.4617 1.47242 19.5023 1.40035C19.594 1.22085 19.7119 1.07016 19.8561 0.946999C19.9373 0.874934 20.0041 0.818592 20.0552 0.777974C20.1365 0.71115 20.2138 0.652188 20.2858 0.601087C20.4745 0.477922 20.675 0.380961 20.8846 0.308897C21.4166 0.124148 22.1058 0.0887709 22.9496 0.201454C24.0345 0.344274 24.5796 0.416339 24.5848 0.416339C24.877 0.477922 25.0736 0.595846 25.1758 0.770112L25.1797 0.772733Z" fill="white"/>
<path d="M32.1896 0.772733C32.3482 1.0492 32.3967 1.38987 32.3351 1.79343C32.2735 2.19831 32.1281 2.48395 31.8975 2.65297C31.7599 2.74993 31.5882 2.78662 31.3825 2.76041C31.3052 2.74993 31.2109 2.73028 31.0982 2.69883L30.9527 2.65297L30.7994 2.59925C30.523 2.51277 30.2976 2.46167 30.1233 2.44595C29.8521 2.43023 29.5966 2.47871 29.3555 2.59139C29.1865 2.6687 29.0437 2.76566 28.9258 2.88358C28.8851 2.92944 28.8458 2.9753 28.8105 3.02116C28.7947 3.04212 28.7829 3.06178 28.7725 3.08274L28.7423 3.1286C28.5943 3.38934 28.5274 3.69202 28.5432 4.034C28.5589 4.37729 28.6532 4.61969 28.8275 4.76382C28.914 4.83589 29.0476 4.85554 29.2271 4.8254C29.2573 4.82016 29.311 4.8123 29.3883 4.80182L29.48 4.78609L29.5796 4.77037C29.7591 4.74024 29.9399 4.71665 30.1247 4.70093C30.5335 4.66555 30.8099 4.65245 30.9541 4.66293C31.1637 4.67341 31.3196 4.72451 31.4218 4.81623C31.6367 5.02063 31.7389 5.34296 31.7284 5.78321C31.7232 6.21822 31.6105 6.53007 31.3904 6.72006C31.2934 6.80653 31.1296 6.84322 30.899 6.8275L30.8152 6.81964L30.7156 6.81178C30.6291 6.80653 30.5492 6.80391 30.4771 6.80391C30.2727 6.79343 30.0578 6.79605 29.8325 6.81178C29.4538 6.83798 29.1642 6.88646 28.9651 6.95721C28.893 6.98342 28.834 7.01094 28.7882 7.04107C28.7725 7.0568 28.758 7.0699 28.7423 7.07907L28.7266 7.09479L28.7187 7.11052C28.6113 7.22844 28.5681 7.68573 28.5877 8.48499C28.593 8.78766 28.6087 9.10475 28.6336 9.43756C28.6545 9.72975 28.6768 9.96429 28.703 10.1438C28.7436 10.4465 28.6467 10.702 28.4108 10.9116C28.2628 11.0453 28.0833 11.116 27.8736 11.1265C27.7924 11.1317 27.6967 11.137 27.5893 11.1422L27.4517 11.1501L27.3285 11.1579C27.1346 11.1737 26.9826 11.1789 26.8752 11.1737C26.5778 11.1579 26.3458 11.0636 26.1768 10.8893C25.9265 10.6338 25.7929 10.1857 25.7772 9.54631V9.38515L25.7693 9.20826C25.7641 9.07068 25.7615 8.94228 25.7615 8.82435C25.7562 8.50202 25.751 8.20066 25.7457 7.91895C25.7405 7.14589 25.751 6.43966 25.7759 5.80025C25.8375 4.00386 26.0143 2.69621 26.3052 1.87729C26.3406 1.78033 26.372 1.70041 26.3969 1.63882C26.4323 1.55234 26.4716 1.47242 26.5122 1.40035C26.604 1.22085 26.7219 1.07016 26.866 0.946999C26.9472 0.874934 27.0141 0.818592 27.0652 0.777974C27.1464 0.71115 27.2237 0.652188 27.2958 0.601087C27.4858 0.477922 27.6849 0.380961 27.8946 0.308897C28.4265 0.124148 29.1157 0.0887709 29.9596 0.201454C31.0445 0.344274 31.5895 0.416339 31.5948 0.416339C31.887 0.477922 32.0835 0.595846 32.1857 0.770112L32.1896 0.772733Z" fill="white"/>
<path d="M33.5248 1.51032C33.5654 1.42384 33.6061 1.34654 33.648 1.27971C33.7449 1.10545 33.8681 0.960007 34.0162 0.842083L34.2232 0.673058C34.3097 0.600993 34.3817 0.544651 34.4381 0.504033C34.6176 0.370385 34.801 0.268184 34.991 0.197429C35.4928 -0.00173184 36.1807 -0.0502119 37.056 0.0519893C38.1972 0.194809 38.7711 0.266874 38.7751 0.266874C39.0817 0.323215 39.29 0.438519 39.3975 0.612785C39.5612 0.873529 39.6123 1.19848 39.5508 1.58763C39.4839 1.97678 39.3306 2.25325 39.0895 2.41703C38.9415 2.51399 38.762 2.55068 38.5523 2.52447C38.4711 2.51399 38.3702 2.49434 38.2523 2.46289L38.0911 2.41703L37.93 2.37117C37.643 2.28469 37.4058 2.23621 37.2159 2.22573C36.9341 2.20477 36.6655 2.24931 36.41 2.35676C36.2358 2.43406 36.0877 2.53102 35.9645 2.64895C35.9187 2.68957 35.8781 2.7328 35.8414 2.77997C35.8257 2.7957 35.8112 2.81273 35.7955 2.8337C35.7903 2.84942 35.7824 2.86383 35.7719 2.87955C35.6082 3.12982 35.5361 3.42201 35.5571 3.75482C35.5728 4.08238 35.6724 4.31561 35.8571 4.45319C35.9488 4.52002 36.0903 4.53967 36.279 4.51477C36.3091 4.50953 36.3629 4.50167 36.4402 4.49119L36.5398 4.47547L36.6472 4.45974C36.8372 4.42961 37.0285 4.40864 37.2224 4.39816C37.6574 4.36278 37.9496 4.34706 38.0977 4.3523C38.3178 4.36802 38.479 4.41912 38.5812 4.5056C38.8118 4.70476 38.9218 5.0153 38.9113 5.43458C38.9061 5.85911 38.7882 6.16179 38.5576 6.33998C38.4501 6.42646 38.2785 6.46315 38.0426 6.44742L37.9431 6.43956L37.8435 6.4317C37.7518 6.42646 37.6692 6.42122 37.5971 6.41598C37.377 6.41074 37.149 6.41598 36.9145 6.4317C36.5149 6.45791 36.2109 6.50377 36.0012 6.56928C35.9239 6.59549 35.8637 6.623 35.8165 6.65314C35.8008 6.66362 35.7864 6.67672 35.7706 6.69113L35.7549 6.699L35.7392 6.71472C35.5597 6.89947 35.4601 7.14711 35.4391 7.45895C35.4234 7.7708 35.4955 8.01975 35.654 8.20319C35.7457 8.31063 35.8925 8.38007 36.0916 8.41021C36.2253 8.42593 36.5804 8.44297 37.1582 8.46393C37.9981 8.49014 38.5353 8.51765 38.7698 8.54779C38.99 8.57792 39.1302 8.63558 39.1917 8.71681C39.3503 8.9317 39.3608 9.24879 39.2219 9.66938C39.0843 10.0992 38.8511 10.432 38.5235 10.6678C38.344 10.8015 38.1501 10.8748 37.9404 10.8906C37.7976 10.8958 37.5722 10.867 37.2643 10.8067L37.1648 10.791L37.0573 10.7674C36.9708 10.7464 36.8935 10.732 36.8267 10.7215C36.642 10.6862 36.4664 10.6573 36.2974 10.6377C35.8361 10.5813 35.3527 10.563 34.8469 10.584C34.7604 10.5892 34.6595 10.5944 34.5468 10.5997L34.4093 10.6075L34.2717 10.6233C34.0725 10.6337 33.914 10.6364 33.796 10.6311C33.4842 10.6154 33.2405 10.5237 33.0662 10.3547C32.8002 10.1083 32.6587 9.67855 32.6443 9.06535C32.6338 8.60937 32.6365 8.0905 32.6522 7.50743C32.6679 6.81168 32.7007 6.1382 32.7518 5.48831C32.8854 3.79937 33.1095 2.55068 33.4279 1.74224C33.4632 1.64528 33.4947 1.56797 33.5196 1.51163L33.5248 1.51032ZM35.8361 2.50875L35.806 2.52447C35.8217 2.51399 35.8322 2.50875 35.8361 2.50875Z" fill="white"/>
<path d="M40.9488 1.51032C40.9894 1.42384 41.03 1.34654 41.072 1.27971C41.1689 1.10545 41.2921 0.960007 41.4402 0.842083L41.6472 0.673058C41.7337 0.600993 41.8057 0.544651 41.8621 0.504033C42.0416 0.370385 42.225 0.268184 42.415 0.197429C42.9168 -0.00173184 43.6047 -0.0502119 44.48 0.0519893C45.6212 0.194809 46.1951 0.266874 46.1991 0.266874C46.5057 0.323215 46.714 0.438519 46.8214 0.612785C46.9852 0.873529 47.0363 1.19848 46.9747 1.58763C46.9079 1.97678 46.7546 2.25325 46.5135 2.41703C46.3655 2.51399 46.186 2.55068 45.9763 2.52447C45.8951 2.51399 45.7942 2.49434 45.6763 2.46289L45.5151 2.41703L45.3539 2.37117C45.067 2.28469 44.8298 2.23621 44.6398 2.22573C44.3581 2.20477 44.0895 2.24931 43.834 2.35676C43.6598 2.43406 43.5117 2.53102 43.3885 2.64895C43.3427 2.68957 43.3021 2.7328 43.2654 2.77997C43.2496 2.7957 43.2352 2.81273 43.2195 2.8337C43.2143 2.84942 43.2064 2.86383 43.1959 2.87955C43.0321 3.12982 42.9601 3.42201 42.981 3.75482C42.9968 4.08238 43.0963 4.31561 43.2811 4.45319C43.3728 4.52002 43.5143 4.53967 43.703 4.51477C43.7331 4.50953 43.7869 4.50167 43.8642 4.49119L43.9637 4.47547L44.0712 4.45974C44.2612 4.42961 44.4525 4.40864 44.6464 4.39816C45.0814 4.36278 45.3736 4.34706 45.5217 4.3523C45.7418 4.36802 45.9029 4.41912 46.0051 4.5056C46.2357 4.70476 46.3458 5.0153 46.3353 5.43458C46.3301 5.85911 46.2122 6.16179 45.9816 6.33998C45.8741 6.42646 45.7025 6.46315 45.4666 6.44742L45.367 6.43956L45.2675 6.4317C45.1757 6.42646 45.0932 6.42122 45.0211 6.41598C44.801 6.41074 44.573 6.41598 44.3385 6.4317C43.9388 6.45791 43.6349 6.50377 43.4252 6.56928C43.3479 6.59549 43.2876 6.623 43.2405 6.65314C43.2247 6.66362 43.2103 6.67672 43.1946 6.69113L43.1789 6.699L43.1632 6.71472C42.9837 6.89947 42.8841 7.14711 42.8631 7.45895C42.8474 7.7708 42.9195 8.01975 43.078 8.20319C43.1697 8.31063 43.3165 8.38007 43.5156 8.41021C43.6493 8.42593 44.0044 8.44297 44.5822 8.46393C45.4221 8.49014 45.9593 8.51765 46.1938 8.54779C46.4139 8.57792 46.5541 8.63558 46.6157 8.71681C46.7743 8.9317 46.7848 9.24879 46.6459 9.66938C46.5083 10.0992 46.2751 10.432 45.9475 10.6678C45.768 10.8015 45.5741 10.8748 45.3644 10.8906C45.2216 10.8958 44.9962 10.867 44.6883 10.8067L44.5887 10.791L44.4813 10.7674C44.3948 10.7464 44.3175 10.732 44.2507 10.7215C44.0659 10.6862 43.8904 10.6573 43.7213 10.6377C43.2601 10.5813 42.7766 10.563 42.2709 10.584C42.1844 10.5892 42.0835 10.5944 41.9708 10.5997L41.8332 10.6075L41.6957 10.6233C41.4965 10.6337 41.338 10.6364 41.22 10.6311C40.9082 10.6154 40.6645 10.5237 40.4902 10.3547C40.2242 10.1083 40.0827 9.67855 40.0683 9.06535C40.0578 8.60937 40.0604 8.0905 40.0762 7.50743C40.0919 6.81168 40.1246 6.1382 40.1757 5.48831C40.3094 3.79937 40.5334 2.55068 40.8518 1.74224C40.8872 1.64528 40.9187 1.56797 40.9436 1.51163L40.9488 1.51032ZM43.2601 2.50875L43.23 2.52447C43.2457 2.51399 43.2562 2.50875 43.2601 2.50875Z" fill="white"/>
</svg>
