<svg width="47" height="19" viewBox="0 0 47 19" fill="none" xmlns="http://www.w3.org/2000/svg">
<path d="M0.43988 0.175537H4.84239C8.53736 0.175537 11.4462 0.227948 11.4462 4.70908C11.4462 6.77931 10.8434 8.63989 8.35392 8.87574V9.05918C11.1317 9.05918 11.4462 11.1032 11.4462 13.5141C11.4462 18.6504 9.45455 18.8338 4.84239 18.8338H0.43988V0.175537ZM4.78998 7.74891C6.15266 7.67029 7.09606 8.11578 7.09606 5.3118C7.09606 3.47742 6.93883 2.71746 4.78998 2.84849V7.74891ZM4.78998 16.1608C7.12226 16.3705 7.09606 15.034 7.09606 13.0948C7.09606 10.4481 6.62436 10.4219 4.78998 10.4219V16.1608Z" fill="white"/>
<path d="M12.5468 18.8338V0.175537H21.5615V3.00572H16.8969V7.09377H21.4042V9.92396H16.8969V16.0036H21.5615V18.8338H12.5468Z" fill="white"/>
<path d="M31.1513 0.175537L33.5622 18.8338H29.2383L28.7404 14.2479H26.382L25.6744 18.8338H22.0056L25.1765 0.175537H31.1513ZM28.426 11.4177L27.666 3.11055H27.6136L26.8537 11.4177H28.426Z" fill="white"/>
<path d="M34.296 0.175537H40.3232L43.101 13.75H43.1534V0.175537H46.5601V18.8338H40.9784L37.7551 3.24157H37.7027V18.8338H34.296V0.175537Z" fill="white"/>
</svg>
